<svg width="103" height="52" viewBox="0 0 103 52" fill="none" xmlns="http://www.w3.org/2000/svg">
<path d="M2.48445 13.958C2.48445 13.8113 2.55779 13.738 2.70445 13.738H5.38845C5.53512 13.738 5.60845 13.8113 5.60845 13.958V19.15C5.63779 19.5167 5.79179 19.81 6.07045 20.03C6.36379 20.2353 6.76712 20.338 7.28045 20.338H7.76445C8.05779 20.338 8.27779 20.4407 8.42445 20.646C8.57112 20.8513 8.64445 21.1887 8.64445 21.658C8.64445 22.5527 8.35112 23 7.76445 23C7.28045 23 6.86245 22.956 6.51045 22.868C6.15845 22.7653 5.85779 22.56 5.60845 22.252V22.604C5.60845 24.276 5.28579 25.508 4.64045 26.3C3.99512 27.1067 2.89512 27.51 1.34045 27.51H0.328453C0.181786 27.51 0.108453 27.4367 0.108453 27.29V25.068C0.108453 24.9213 0.181786 24.848 0.328453 24.848H0.812453C1.20845 24.848 1.51645 24.782 1.73645 24.65C1.95645 24.5327 2.11779 24.3493 2.22045 24.1C2.33779 23.8653 2.41112 23.572 2.44045 23.22C2.46979 22.868 2.48445 22.4647 2.48445 22.01V13.958ZM7.75586 23C7.46253 23 7.25719 22.9193 7.13986 22.758C7.00786 22.582 6.94186 22.252 6.94186 21.768C6.94186 21.2547 7.00053 20.888 7.11786 20.668C7.23519 20.448 7.44786 20.338 7.75586 20.338H10.5939C10.8872 20.338 11.1072 20.448 11.2539 20.668C11.4005 20.8733 11.4739 21.218 11.4739 21.702C11.4739 22.2447 11.4005 22.5967 11.2539 22.758C11.1219 22.9193 10.9019 23 10.5939 23H7.75586ZM10.5918 23C10.2985 23 10.0931 22.9193 9.9758 22.758C9.8438 22.582 9.7778 22.252 9.7778 21.768C9.7778 21.2547 9.83646 20.888 9.9538 20.668C10.0711 20.448 10.2838 20.338 10.5918 20.338H13.4298C13.7231 20.338 13.9431 20.448 14.0898 20.668C14.2365 20.8733 14.3098 21.218 14.3098 21.702C14.3098 22.2447 14.2365 22.5967 14.0898 22.758C13.9578 22.9193 13.7378 23 13.4298 23H10.5918ZM13.4277 23C13.1344 23 12.9291 22.9193 12.8117 22.758C12.6797 22.582 12.6137 22.252 12.6137 21.768C12.6137 21.2547 12.6724 20.888 12.7897 20.668C12.9071 20.448 13.1197 20.338 13.4277 20.338H16.2657C16.5591 20.338 16.7791 20.448 16.9257 20.668C17.0724 20.8733 17.1457 21.218 17.1457 21.702C17.1457 22.2447 17.0724 22.5967 16.9257 22.758C16.7937 22.9193 16.5737 23 16.2657 23H13.4277ZM16.2637 23C15.9703 23 15.765 22.9193 15.6477 22.758C15.5157 22.582 15.4497 22.252 15.4497 21.768C15.4497 21.2547 15.5083 20.888 15.6257 20.668C15.743 20.448 15.9557 20.338 16.2637 20.338H19.1017C19.395 20.338 19.615 20.448 19.7617 20.668C19.9083 20.8733 19.9817 21.218 19.9817 21.702C19.9817 22.2447 19.9083 22.5967 19.7617 22.758C19.6297 22.9193 19.4097 23 19.1017 23H16.2637ZM19.0996 23C18.8063 23 18.6009 22.9193 18.4836 22.758C18.3516 22.582 18.2856 22.252 18.2856 21.768C18.2856 21.2547 18.3443 20.888 18.4616 20.668C18.5789 20.448 18.7916 20.338 19.0996 20.338H21.9376C22.2309 20.338 22.4509 20.448 22.5976 20.668C22.7443 20.8733 22.8176 21.218 22.8176 21.702C22.8176 22.2447 22.7443 22.5967 22.5976 22.758C22.4656 22.9193 22.2456 23 21.9376 23H19.0996ZM22.9255 15.124C23.4389 14.6107 24.0182 14.1927 24.6635 13.87C25.3235 13.5327 26.1229 13.364 27.0615 13.364C28.0295 13.364 28.8435 13.5033 29.5035 13.782C30.1782 14.0607 30.7209 14.4493 31.1315 14.948C31.5569 15.432 31.8649 16.0113 32.0555 16.686C32.2462 17.346 32.3415 18.0647 32.3415 18.842V19.194C32.3855 19.546 32.5395 19.8247 32.8035 20.03C33.0822 20.2353 33.4782 20.338 33.9915 20.338H34.4975C34.7909 20.338 35.0109 20.4407 35.1575 20.646C35.3042 20.8513 35.3775 21.1887 35.3775 21.658C35.3775 22.5527 35.0842 23 34.4975 23C33.8815 23 33.3462 22.9193 32.8915 22.758C32.4369 22.582 32.0629 22.2153 31.7695 21.658C31.4762 22.186 31.0582 22.5453 30.5155 22.736C29.9875 22.912 29.3569 23 28.6235 23H21.9355C21.6422 23 21.4222 22.9047 21.2755 22.714C21.1289 22.5087 21.0555 22.1713 21.0555 21.702C21.0555 21.2327 21.1215 20.888 21.2535 20.668C21.3855 20.448 21.6129 20.338 21.9355 20.338H27.3915C27.7435 20.338 28.0295 20.316 28.2495 20.272C28.4695 20.2133 28.6382 20.1253 28.7555 20.008C28.8875 19.876 28.9755 19.7073 29.0195 19.502C29.0782 19.282 29.1075 19.0107 29.1075 18.688C29.1075 18.3213 29.0709 17.9767 28.9975 17.654C28.9242 17.3313 28.7995 17.0527 28.6235 16.818C28.4475 16.5687 28.2129 16.378 27.9195 16.246C27.6409 16.0993 27.2889 16.026 26.8635 16.026C26.3942 16.026 25.9762 16.1213 25.6095 16.312C25.2429 16.488 24.9055 16.7153 24.5975 16.994C24.4949 17.0967 24.3922 17.104 24.2895 17.016L22.9915 15.454C22.8595 15.322 22.8375 15.212 22.9255 15.124ZM25.8955 27.466C25.7489 27.466 25.6755 27.3927 25.6755 27.246V25.09C25.6755 24.9433 25.7489 24.87 25.8955 24.87H28.6235C28.7702 24.87 28.8435 24.9433 28.8435 25.09V27.246C28.8435 27.3927 28.7702 27.466 28.6235 27.466H25.8955ZM35.7139 11.516C35.5672 11.516 35.4939 11.4427 35.4939 11.296V9.14C35.4939 8.99333 35.5672 8.92 35.7139 8.92H37.9139C38.0606 8.92 38.1339 8.99333 38.1339 9.14V11.296C38.1339 11.4427 38.0606 11.516 37.9139 11.516H35.7139ZM39.1019 11.516C38.9552 11.516 38.8819 11.4427 38.8819 11.296V9.14C38.8819 8.99333 38.9552 8.92 39.1019 8.92H41.3239C41.4706 8.92 41.5439 8.99333 41.5439 9.14V11.296C41.5439 11.4427 41.4706 11.516 41.3239 11.516H39.1019ZM36.9899 13.958C36.9899 13.8113 37.0632 13.738 37.2099 13.738H39.8719C40.0186 13.738 40.0919 13.8113 40.0919 13.958V19.15C40.1212 19.5167 40.2752 19.81 40.5539 20.03C40.8472 20.2353 41.2506 20.338 41.7639 20.338H42.2699C42.5632 20.338 42.7832 20.4407 42.9299 20.646C43.0766 20.8513 43.1499 21.1887 43.1499 21.658C43.1499 22.5527 42.8566 23 42.2699 23C41.7126 23 41.2286 22.934 40.8179 22.802C40.4072 22.67 40.0626 22.3693 39.7839 21.9C39.5492 22.3693 39.1972 22.67 38.7279 22.802C38.2732 22.934 37.6426 23 36.8359 23H34.5699C34.2766 23 34.0566 22.912 33.9099 22.736C33.7632 22.5453 33.6899 22.2007 33.6899 21.702C33.6899 21.2033 33.7632 20.8513 33.9099 20.646C34.0419 20.4407 34.2619 20.338 34.5699 20.338H35.9339C36.4032 20.338 36.6966 20.206 36.8139 19.942C36.9312 19.6633 36.9899 19.194 36.9899 18.534V13.958ZM49.1018 23.154C48.3244 23.154 47.6058 23.0587 46.9458 22.868C46.3004 22.6627 45.7578 22.3107 45.3178 21.812C45.1124 22.1053 44.8704 22.3327 44.5918 22.494C44.3278 22.6407 44.0564 22.758 43.7778 22.846C43.4991 22.9193 43.2278 22.9633 42.9638 22.978C42.6998 22.9927 42.4651 23 42.2598 23C41.9664 23 41.7464 22.9047 41.5998 22.714C41.4531 22.5233 41.3798 22.186 41.3798 21.702C41.3798 21.1887 41.4531 20.8367 41.5998 20.646C41.7318 20.4407 41.9518 20.338 42.2598 20.338H42.8978C43.2204 20.338 43.5211 20.1987 43.7998 19.92C44.0784 19.6413 44.2324 19.1207 44.2618 18.358V17.918C44.2618 17.0527 44.3938 16.3267 44.6578 15.74C44.9364 15.1533 45.2958 14.684 45.7358 14.332C46.1904 13.98 46.7038 13.7307 47.2758 13.584C47.8624 13.4373 48.4711 13.364 49.1018 13.364C49.7471 13.364 50.3631 13.4447 50.9498 13.606C51.5364 13.7673 52.0498 14.0387 52.4898 14.42C52.9444 14.8013 53.3038 15.3147 53.5678 15.96C53.8318 16.5907 53.9638 17.39 53.9638 18.358C53.9638 19.2527 53.8391 20.008 53.5898 20.624C53.3404 21.24 52.9958 21.7387 52.5558 22.12C52.1304 22.4867 51.6171 22.7507 51.0158 22.912C50.4291 23.0733 49.7911 23.154 49.1018 23.154ZM49.1018 16.026C47.8844 16.026 47.2758 16.7667 47.2758 18.248C47.2758 19.084 47.4298 19.6707 47.7378 20.008C48.0458 20.3307 48.5004 20.492 49.1018 20.492C49.7178 20.492 50.1724 20.3307 50.4658 20.008C50.7591 19.6707 50.9058 19.084 50.9058 18.248C50.9058 16.7667 50.3044 16.026 49.1018 16.026ZM3.03497 36.636C2.8883 36.636 2.81497 36.5627 2.81497 36.416V34.26C2.81497 34.1133 2.8883 34.04 3.03497 34.04H5.23497C5.38164 34.04 5.45497 34.1133 5.45497 34.26V36.416C5.45497 36.5627 5.38164 36.636 5.23497 36.636H3.03497ZM6.42297 36.636C6.2763 36.636 6.20297 36.5627 6.20297 36.416V34.26C6.20297 34.1133 6.2763 34.04 6.42297 34.04H8.64497C8.79164 34.04 8.86497 34.1133 8.86497 34.26V36.416C8.86497 36.5627 8.79164 36.636 8.64497 36.636H6.42297ZM7.50097 39.364V38.418C7.50097 38.2713 7.5743 38.198 7.72097 38.198H10.405C10.5516 38.198 10.625 38.2713 10.625 38.418V45.172C10.625 45.612 10.7056 45.92 10.867 46.096C11.043 46.2573 11.3143 46.338 11.681 46.338H12.363C12.9496 46.338 13.243 46.7853 13.243 47.68C13.243 48.1933 13.1696 48.5453 13.023 48.736C12.891 48.912 12.671 49 12.363 49H10.075C9.3563 49 8.79164 48.89 8.38097 48.67C7.98497 48.4353 7.72097 48.0027 7.58897 47.372C7.2663 47.636 6.8923 47.834 6.46697 47.966C6.04164 48.098 5.5943 48.164 5.12497 48.164C4.55297 48.164 4.00297 48.0833 3.47497 47.922C2.96164 47.7607 2.50697 47.5113 2.11097 47.174C1.71497 46.8367 1.39964 46.3967 1.16497 45.854C0.944969 45.3113 0.834969 44.6513 0.834969 43.874C0.834969 42.994 0.959635 42.268 1.20897 41.696C1.47297 41.1093 1.8103 40.6473 2.22097 40.31C2.6463 39.958 3.12297 39.716 3.65097 39.584C4.19364 39.4373 4.74364 39.364 5.30097 39.364H7.50097ZM5.67497 45.502C6.2323 45.502 6.6723 45.348 6.99497 45.04C7.3323 44.7173 7.50097 44.2187 7.50097 43.544V42.026H5.74097C5.18364 42.026 4.7363 42.158 4.39897 42.422C4.06164 42.686 3.89297 43.17 3.89297 43.874C3.89297 44.4753 4.06164 44.9007 4.39897 45.15C4.7363 45.3847 5.16164 45.502 5.67497 45.502ZM12.5469 49C12.2535 49 12.0482 48.9193 11.9309 48.758C11.7989 48.582 11.7329 48.252 11.7329 47.768C11.7329 47.2547 11.7915 46.888 11.9089 46.668C12.0262 46.448 12.2389 46.338 12.5469 46.338H15.3849C15.6782 46.338 15.8982 46.448 16.0449 46.668C16.1915 46.8733 16.2649 47.218 16.2649 47.702C16.2649 48.2447 16.1915 48.5967 16.0449 48.758C15.9129 48.9193 15.6929 49 15.3849 49H12.5469ZM15.3828 49C15.0895 49 14.8841 48.9193 14.7668 48.758C14.6348 48.582 14.5688 48.252 14.5688 47.768C14.5688 47.2547 14.6275 46.888 14.7448 46.668C14.8621 46.448 15.0748 46.338 15.3828 46.338H18.2208C18.5141 46.338 18.7341 46.448 18.8808 46.668C19.0275 46.8733 19.1008 47.218 19.1008 47.702C19.1008 48.2447 19.0275 48.5967 18.8808 48.758C18.7488 48.9193 18.5288 49 18.2208 49H15.3828ZM18.2188 49C17.9254 49 17.7201 48.9193 17.6027 48.758C17.4707 48.582 17.4047 48.252 17.4047 47.768C17.4047 47.2547 17.4634 46.888 17.5807 46.668C17.6981 46.448 17.9107 46.338 18.2188 46.338H21.0568C21.3501 46.338 21.5701 46.448 21.7168 46.668C21.8634 46.8733 21.9368 47.218 21.9368 47.702C21.9368 48.2447 21.8634 48.5967 21.7168 48.758C21.5848 48.9193 21.3648 49 21.0568 49H18.2188ZM21.0547 49C20.7614 49 20.556 48.9193 20.4387 48.758C20.3067 48.582 20.2407 48.252 20.2407 47.768C20.2407 47.2547 20.2994 46.888 20.4167 46.668C20.534 46.448 20.7467 46.338 21.0547 46.338H23.8927C24.186 46.338 24.406 46.448 24.5527 46.668C24.6994 46.8733 24.7727 47.218 24.7727 47.702C24.7727 48.2447 24.6994 48.5967 24.5527 48.758C24.4207 48.9193 24.2007 49 23.8927 49H21.0547ZM23.8906 49C23.5973 49 23.392 48.9193 23.2746 48.758C23.1426 48.582 23.0766 48.252 23.0766 47.768C23.0766 47.2547 23.1353 46.888 23.2526 46.668C23.37 46.448 23.5826 46.338 23.8906 46.338H26.7286C27.022 46.338 27.242 46.448 27.3886 46.668C27.5353 46.8733 27.6086 47.218 27.6086 47.702C27.6086 48.2447 27.5353 48.5967 27.3886 48.758C27.2566 48.9193 27.0366 49 26.7286 49H23.8906ZM26.7266 49C26.4332 49 26.2279 48.9193 26.1106 48.758C25.9786 48.582 25.9126 48.252 25.9126 47.768C25.9126 47.2547 25.9712 46.888 26.0886 46.668C26.2059 46.448 26.4186 46.338 26.7266 46.338H29.5646C29.8579 46.338 30.0779 46.448 30.2246 46.668C30.3712 46.8733 30.4446 47.218 30.4446 47.702C30.4446 48.2447 30.3712 48.5967 30.2246 48.758C30.0926 48.9193 29.8726 49 29.5646 49H26.7266ZM31.3885 34.26C31.3885 34.1133 31.4618 34.04 31.6085 34.04H34.2925C34.4392 34.04 34.5125 34.1133 34.5125 34.26V45.15C34.5418 45.5313 34.6958 45.8247 34.9745 46.03C35.2532 46.2353 35.6565 46.338 36.1845 46.338H36.6905C36.9838 46.338 37.2038 46.4407 37.3505 46.646C37.4972 46.8513 37.5705 47.1887 37.5705 47.658C37.5705 48.5527 37.2772 49 36.6905 49C36.1332 49 35.6492 48.934 35.2385 48.802C34.8278 48.67 34.4832 48.3693 34.2045 47.9C33.9845 48.3253 33.6618 48.6187 33.2365 48.78C32.8258 48.9267 32.2612 49 31.5425 49H29.5625C29.2692 49 29.0492 48.9487 28.9025 48.846C28.7558 48.7433 28.6825 48.538 28.6825 48.23C28.6825 48.054 28.7045 47.856 28.7485 47.636C28.7778 47.416 28.8292 47.2107 28.9025 47.02C28.9612 46.8293 29.0492 46.668 29.1665 46.536C29.2692 46.404 29.4012 46.338 29.5625 46.338H30.3325C30.5818 46.338 30.7798 46.294 30.9265 46.206C31.0732 46.118 31.1758 45.9933 31.2345 45.832C31.3078 45.656 31.3518 45.4433 31.3665 45.194C31.3812 44.9447 31.3885 44.6587 31.3885 44.336V34.26ZM44.2198 49C43.6478 49 43.1785 48.8973 42.8118 48.692C42.4452 48.472 42.1665 48.186 41.9758 47.834C41.7705 48.3033 41.4625 48.6187 41.0518 48.78C40.6412 48.9267 40.0618 49 39.3138 49H36.6738C36.3805 49 36.1605 48.9193 36.0138 48.758C35.8672 48.582 35.7938 48.252 35.7938 47.768C35.7938 47.2547 35.8672 46.888 36.0138 46.668C36.1458 46.448 36.3658 46.338 36.6738 46.338H38.1478C38.5732 46.338 38.8445 46.2353 38.9618 46.03C39.0792 45.81 39.1378 45.414 39.1378 44.842V41.542C39.1378 41.3953 39.2112 41.322 39.3578 41.322H42.0418C42.1885 41.322 42.2618 41.3953 42.2618 41.542V45.15C42.2618 45.6193 42.4085 45.9347 42.7018 46.096C42.9952 46.2573 43.3178 46.338 43.6698 46.338C43.9485 46.338 44.1685 46.3087 44.3298 46.25C44.5058 46.1913 44.6305 46.1033 44.7038 45.986C44.7772 45.8687 44.8212 45.7147 44.8358 45.524C44.8652 45.3187 44.8798 45.0693 44.8798 44.776V41.542C44.8798 41.3953 44.9532 41.322 45.0998 41.322H47.7838C47.9305 41.322 48.0038 41.3953 48.0038 41.542V45.128C48.0038 45.6267 48.1505 45.9567 48.4438 46.118C48.7518 46.2647 49.0965 46.338 49.4778 46.338C49.7565 46.338 49.9692 46.3087 50.1158 46.25C50.2625 46.1913 50.3725 46.1033 50.4458 45.986C50.5192 45.854 50.5632 45.6927 50.5778 45.502C50.5925 45.2967 50.5998 45.0473 50.5998 44.754V39.958C50.5998 39.8113 50.6732 39.738 50.8198 39.738H53.5038C53.6505 39.738 53.7238 39.8113 53.7238 39.958V46.228C53.7238 47.1813 53.5258 47.8853 53.1298 48.34C52.7338 48.78 52.0738 49 51.1498 49H49.9398C49.3678 49 48.8985 48.8973 48.5318 48.692C48.1798 48.472 47.9085 48.186 47.7178 47.834C47.5125 48.2887 47.1972 48.5967 46.7718 48.758C46.3612 48.9193 45.7965 49 45.0778 49H44.2198Z" fill="#333333"/>
<g clip-path="url(#clip0_6698_4715)">
<path d="M91.9992 43.2031C89.5792 43.2031 87.5992 45.1831 87.5992 47.6031C87.5992 50.0231 89.5792 52.0031 91.9992 52.0031C94.4192 52.0031 96.3992 50.0231 96.3992 47.6031C96.3992 45.1831 94.4192 43.2031 91.9992 43.2031ZM76.5992 43.2031C74.1792 43.2031 72.1992 45.1831 72.1992 47.6031C72.1992 50.0231 74.1792 52.0031 76.5992 52.0031C79.0192 52.0031 80.9992 50.0231 80.9992 47.6031C80.9992 45.1831 79.0192 43.2031 76.5992 43.2031Z" fill="#62D0B6"/>
<path d="M103 16.8L98.6 38.8H72.2L67.8 12.4H59V8H71.54L72.2 11.74L75.94 34.4H95.08L95.96 30H81V25.6H96.84L97.72 21.2H81V16.8H103Z" fill="#62D0B6"/>
</g>
<defs>
<clipPath id="clip0_6698_4715">
<rect width="44" height="44" fill="white" transform="translate(59 8)"/>
</clipPath>
</defs>
</svg>
